<svg width="500" height="500" viewBox="0 0 500 500" fill="none" xmlns="http://www.w3.org/2000/svg">
<circle cx="250" cy="250" r="250" fill="#0B3142"/>
<g filter="url(#filter0_d_3_12)">
<path d="M270.828 143.25V348H228.781V143.25H270.828ZM333.828 143.25V176.297H166.766V143.25H333.828Z" fill="#2D936C"/>
<path d="M270.828 143.25H272.828V141.25H270.828V143.25ZM270.828 348V350H272.828V348H270.828ZM228.781 348H226.781V350H228.781V348ZM228.781 143.25V141.25H226.781V143.25H228.781ZM333.828 143.25H335.828V141.25H333.828V143.25ZM333.828 176.297V178.297H335.828V176.297H333.828ZM166.766 176.297H164.766V178.297H166.766V176.297ZM166.766 143.25V141.25H164.766V143.25H166.766ZM268.828 143.25V348H272.828V143.25H268.828ZM270.828 346H228.781V350H270.828V346ZM230.781 348V143.25H226.781V348H230.781ZM228.781 145.25H270.828V141.25H228.781V145.25ZM331.828 143.25V176.297H335.828V143.25H331.828ZM333.828 174.297H166.766V178.297H333.828V174.297ZM168.766 176.297V143.25H164.766V176.297H168.766ZM166.766 145.25H333.828V141.25H166.766V145.25Z" fill="#153B50"/>
</g>
<g filter="url(#filter1_d_3_12)">
<path d="M173.781 236.93H200.078L200.219 251.414H178.141C174.25 251.414 171.062 251.906 168.578 252.891C166.094 253.922 164.242 255.398 163.023 257.32C161.758 259.289 161.125 261.68 161.125 264.492C161.125 267.68 161.734 270.258 162.953 272.227C164.125 274.195 165.977 275.625 168.508 276.516C170.992 277.406 174.203 277.852 178.141 277.852H192.766L192.766 192H213.859L213.859 294.375H178.141C172.188 294.375 166.867 293.812 162.18 292.688C157.445 291.562 153.438 289.852 150.156 287.555C146.875 285.258 144.367 282.352 142.633 278.836C140.898 275.367 140.031 271.242 140.031 266.461C140.031 262.242 140.992 258.352 142.914 254.789C144.789 251.227 147.766 248.32 151.844 246.07C155.875 243.82 161.148 242.578 167.664 242.344L173.781 236.93ZM174.695 192H205.844L197.617 208.453H174.695C170.992 208.453 167.969 209.039 165.625 210.211C163.281 211.43 161.547 213.07 160.422 215.133C159.297 217.195 158.734 219.562 158.734 222.234C158.734 225.234 159.25 227.836 160.281 230.039C161.266 232.242 162.859 233.93 165.062 235.102C167.266 236.32 170.172 236.93 173.781 236.93H194.102L193.961 251.414H168.648L163.797 245.719C157.562 245.812 152.547 244.711 148.75 242.414C144.906 240.164 142.117 237.234 140.383 233.625C138.602 230.016 137.711 226.148 137.711 222.023C137.711 215.461 139.141 209.93 142 205.43C144.859 200.977 149.055 197.625 154.586 195.375C160.07 193.125 166.773 192 174.695 192Z" fill="#2D936C"/>
<path d="M173.781 236.93V234.93H173.023L172.456 235.432L173.781 236.93ZM200.078 236.93L202.078 236.91L202.059 234.93H200.078V236.93ZM200.219 251.414V253.414H202.238L202.219 251.395L200.219 251.414ZM168.578 252.891L167.841 251.031L167.826 251.037L167.811 251.043L168.578 252.891ZM163.023 257.32L164.706 258.402L164.712 258.391L163.023 257.32ZM162.953 272.227L164.672 271.204L164.663 271.189L164.654 271.174L162.953 272.227ZM168.508 276.516L169.183 274.633L169.172 274.629L168.508 276.516ZM192.766 277.852V279.852H194.766V277.852H192.766ZM192.766 192V190H190.766V192H192.766ZM213.859 192H215.859V190H213.859V192ZM213.859 294.375V296.375H215.859V294.375H213.859ZM162.18 292.688L162.646 290.743L162.642 290.742L162.18 292.688ZM142.633 278.836L144.426 277.951L144.422 277.942L142.633 278.836ZM142.914 254.789L144.674 255.739L144.679 255.73L144.684 255.721L142.914 254.789ZM151.844 246.07L152.81 247.821L152.818 247.817L151.844 246.07ZM167.664 242.344L167.736 244.342L168.453 244.317L168.99 243.841L167.664 242.344ZM205.844 192L207.633 192.894L209.08 190H205.844V192ZM197.617 208.453V210.453H198.853L199.406 209.348L197.617 208.453ZM165.625 210.211L164.731 208.422L164.716 208.429L164.702 208.437L165.625 210.211ZM160.281 230.039L162.107 229.223L162.1 229.207L162.093 229.191L160.281 230.039ZM165.062 235.102L166.031 233.351L166.016 233.344L166.002 233.336L165.062 235.102ZM194.102 236.93L196.101 236.949L196.121 234.93H194.102V236.93ZM193.961 251.414V253.414H195.942L195.961 251.433L193.961 251.414ZM168.648 251.414L167.126 252.711L167.725 253.414H168.648V251.414ZM163.797 245.719L165.319 244.422L164.709 243.705L163.767 243.719L163.797 245.719ZM148.75 242.414L149.785 240.703L149.773 240.695L149.76 240.688L148.75 242.414ZM140.383 233.625L142.185 232.759L142.181 232.749L142.176 232.74L140.383 233.625ZM142 205.43L140.317 204.349L140.312 204.357L142 205.43ZM154.586 195.375L155.34 197.228L155.345 197.225L154.586 195.375ZM173.781 238.93H200.078V234.93H173.781V238.93ZM198.078 236.949L198.219 251.433L202.219 251.395L202.078 236.91L198.078 236.949ZM200.219 249.414H178.141V253.414H200.219V249.414ZM178.141 249.414C174.103 249.414 170.641 249.922 167.841 251.031L169.315 254.75C171.484 253.891 174.397 253.414 178.141 253.414V249.414ZM167.811 251.043C165.018 252.203 162.811 253.92 161.334 256.249L164.712 258.391C165.673 256.877 167.17 255.641 169.345 254.738L167.811 251.043ZM161.341 256.239C159.83 258.59 159.125 261.374 159.125 264.492H163.125C163.125 261.985 163.686 259.988 164.706 258.402L161.341 256.239ZM159.125 264.492C159.125 267.917 159.778 270.897 161.253 273.279L164.654 271.174C163.691 269.619 163.125 267.443 163.125 264.492H159.125ZM161.235 273.25C162.686 275.688 164.95 277.384 167.844 278.402L169.172 274.629C167.003 273.866 165.564 272.703 164.672 271.204L161.235 273.25ZM167.833 278.398C170.613 279.395 174.075 279.852 178.141 279.852V275.852C174.331 275.852 171.372 275.418 169.183 274.633L167.833 278.398ZM178.141 279.852H192.766V275.852H178.141V279.852ZM194.766 277.852L194.766 192H190.766V277.852H194.766ZM192.766 194H213.859V190H192.766V194ZM211.859 192L211.859 294.375H215.859L215.859 192H211.859ZM213.859 292.375H178.141V296.375H213.859V292.375ZM178.141 292.375C172.31 292.375 167.15 291.824 162.646 290.743L161.713 294.632C166.584 295.801 172.065 296.375 178.141 296.375V292.375ZM162.642 290.742C158.102 289.663 154.338 288.041 151.303 285.916L149.009 289.193C152.537 291.662 156.789 293.462 161.717 294.633L162.642 290.742ZM151.303 285.916C148.291 283.808 146.009 281.158 144.426 277.951L140.839 279.721C142.726 283.545 145.459 286.708 149.009 289.193L151.303 285.916ZM144.422 277.942C142.855 274.808 142.031 271.003 142.031 266.461H138.031C138.031 271.482 138.942 275.927 140.844 279.73L144.422 277.942ZM142.031 266.461C142.031 262.559 142.917 258.997 144.674 255.739L141.154 253.839C139.068 257.706 138.031 261.925 138.031 266.461H142.031ZM144.684 255.721C146.35 252.556 149.019 249.913 152.81 247.821L150.878 244.319C146.512 246.728 143.228 249.897 141.144 253.858L144.684 255.721ZM152.818 247.817C156.483 245.771 161.415 244.57 167.736 244.342L167.592 240.345C160.882 240.586 155.267 241.869 150.869 244.324L152.818 247.817ZM168.99 243.841L175.107 238.427L172.456 235.432L166.339 240.846L168.99 243.841ZM174.695 194H205.844V190H174.695V194ZM204.055 191.106L195.828 207.559L199.406 209.348L207.633 192.894L204.055 191.106ZM197.617 206.453H174.695V210.453H197.617V206.453ZM174.695 206.453C170.802 206.453 167.443 207.066 164.731 208.422L166.519 212C168.495 211.012 171.183 210.453 174.695 210.453V206.453ZM164.702 208.437C162.051 209.815 160.005 211.721 158.666 214.175L162.178 216.091C163.089 214.419 164.511 213.044 166.548 211.985L164.702 208.437ZM158.666 214.175C157.36 216.57 156.734 219.274 156.734 222.234H160.734C160.734 219.851 161.234 217.821 162.178 216.091L158.666 214.175ZM156.734 222.234C156.734 225.461 157.289 228.364 158.47 230.887L162.093 229.191C161.211 227.308 160.734 225.008 160.734 222.234H156.734ZM158.455 230.855C159.628 233.479 161.542 235.494 164.123 236.867L166.002 233.336C164.177 232.365 162.903 231.005 162.107 229.223L158.455 230.855ZM164.094 236.852C166.695 238.29 169.971 238.93 173.781 238.93V234.93C170.373 234.93 167.837 234.351 166.031 233.351L164.094 236.852ZM173.781 238.93H194.102V234.93H173.781V238.93ZM192.102 236.91L191.961 251.395L195.961 251.433L196.101 236.949L192.102 236.91ZM193.961 249.414H168.648V253.414H193.961V249.414ZM170.171 250.117L165.319 244.422L162.274 247.016L167.126 252.711L170.171 250.117ZM163.767 243.719C157.762 243.809 153.156 242.742 149.785 240.703L147.715 244.125C151.938 246.68 157.363 247.816 163.827 247.719L163.767 243.719ZM149.76 240.688C146.22 238.616 143.728 235.969 142.185 232.759L138.58 234.491C140.506 238.499 143.592 241.712 147.74 244.14L149.76 240.688ZM142.176 232.74C140.534 229.413 139.711 225.849 139.711 222.023H135.711C135.711 226.448 136.669 230.618 138.589 234.51L142.176 232.74ZM139.711 222.023C139.711 215.753 141.075 210.615 143.688 206.502L140.312 204.357C137.206 209.245 135.711 215.169 135.711 222.023H139.711ZM143.683 206.51C146.292 202.448 150.139 199.343 155.34 197.228L153.832 193.522C147.97 195.907 143.427 199.505 140.317 204.349L143.683 206.51ZM155.345 197.225C160.522 195.101 166.951 194 174.695 194V190C166.596 190 159.618 191.149 153.827 193.525L155.345 197.225Z" fill="#153B50"/>
</g>
<g filter="url(#filter2_d_3_12)">
<path d="M285.141 191.625H323.32C331.148 191.625 337.875 192.797 343.5 195.141C349.172 197.484 353.531 200.953 356.578 205.547C359.625 210.141 361.148 215.789 361.148 222.492C361.148 227.977 360.211 232.688 358.336 236.625C356.508 240.516 353.906 243.773 350.531 246.398C347.203 248.977 343.289 251.039 338.789 252.586L332.109 256.102H298.922L298.781 239.648H323.461C327.164 239.648 330.234 238.992 332.672 237.68C335.109 236.367 336.938 234.539 338.156 232.195C339.422 229.852 340.055 227.133 340.055 224.039C340.055 220.758 339.445 217.922 338.227 215.531C337.008 213.141 335.156 211.312 332.672 210.047C330.188 208.781 327.07 208.148 323.32 208.148H306.234V294H285.141V191.625ZM342.375 294L319.031 248.367L341.32 248.227L364.945 293.016V294H342.375Z" fill="#2D936C"/>
<path d="M285.141 191.625V189.625H283.141V191.625H285.141ZM343.5 195.141L342.731 196.987L342.736 196.989L343.5 195.141ZM358.336 236.625L356.53 235.765L356.526 235.774L358.336 236.625ZM350.531 246.398L351.756 247.98L351.759 247.977L350.531 246.398ZM338.789 252.586L338.139 250.695L337.994 250.745L337.858 250.816L338.789 252.586ZM332.109 256.102V258.102H332.604L333.041 257.871L332.109 256.102ZM298.922 256.102L296.922 256.119L296.939 258.102H298.922V256.102ZM298.781 239.648V237.648H296.764L296.781 239.666L298.781 239.648ZM338.156 232.195L336.396 231.245L336.389 231.259L336.382 231.273L338.156 232.195ZM306.234 208.148V206.148H304.234V208.148H306.234ZM306.234 294V296H308.234V294H306.234ZM285.141 294H283.141V296H285.141V294ZM342.375 294L340.594 294.911L341.152 296H342.375V294ZM319.031 248.367L319.019 246.367L315.772 246.388L317.251 249.278L319.031 248.367ZM341.32 248.227L343.089 247.293L342.523 246.219L341.308 246.227L341.32 248.227ZM364.945 293.016H366.945V292.52L366.714 292.083L364.945 293.016ZM364.945 294V296H366.945V294H364.945ZM285.141 193.625H323.32V189.625H285.141V193.625ZM323.32 193.625C330.956 193.625 337.408 194.769 342.731 196.987L344.269 193.294C338.342 190.825 331.341 189.625 323.32 189.625V193.625ZM342.736 196.989C348.083 199.199 352.109 202.428 354.911 206.652L358.245 204.441C354.953 199.479 350.261 195.77 344.264 193.292L342.736 196.989ZM354.911 206.652C357.698 210.854 359.148 216.096 359.148 222.492H363.148C363.148 215.482 361.552 209.428 358.245 204.441L354.911 206.652ZM359.148 222.492C359.148 227.754 358.249 232.156 356.53 235.765L360.142 237.485C362.173 233.219 363.148 228.2 363.148 222.492H359.148ZM356.526 235.774C354.831 239.381 352.428 242.389 349.303 244.82L351.759 247.977C355.384 245.158 358.185 241.65 360.146 237.476L356.526 235.774ZM349.306 244.817C346.173 247.245 342.458 249.21 338.139 250.695L339.439 254.477C344.12 252.868 348.234 250.708 351.756 247.98L349.306 244.817ZM337.858 250.816L331.178 254.332L333.041 257.871L339.721 254.356L337.858 250.816ZM332.109 254.102H298.922V258.102H332.109V254.102ZM300.922 256.084L300.781 239.631L296.781 239.666L296.922 256.119L300.922 256.084ZM298.781 241.648H323.461V237.648H298.781V241.648ZM323.461 241.648C327.388 241.648 330.809 240.954 333.62 239.441L331.724 235.919C329.659 237.03 326.94 237.648 323.461 237.648V241.648ZM333.62 239.441C336.393 237.948 338.518 235.835 339.931 233.118L336.382 231.273C335.357 233.243 333.826 234.787 331.724 235.919L333.62 239.441ZM339.916 233.146C341.363 230.466 342.055 227.411 342.055 224.039H338.055C338.055 226.855 337.481 229.237 336.396 231.245L339.916 233.146ZM342.055 224.039C342.055 220.511 341.399 217.351 340.008 214.623L336.445 216.44C337.492 218.493 338.055 221.004 338.055 224.039H342.055ZM340.008 214.623C338.59 211.841 336.425 209.714 333.58 208.265L331.764 211.829C333.888 212.911 335.426 214.441 336.445 216.44L340.008 214.623ZM333.58 208.265C330.734 206.815 327.282 206.148 323.32 206.148V210.148C326.859 210.148 329.641 210.747 331.764 211.829L333.58 208.265ZM323.32 206.148H306.234V210.148H323.32V206.148ZM304.234 208.148V294H308.234V208.148H304.234ZM306.234 292H285.141V296H306.234V292ZM287.141 294V191.625H283.141V294H287.141ZM344.156 293.089L320.812 247.456L317.251 249.278L340.594 294.911L344.156 293.089ZM319.044 250.367L341.333 250.227L341.308 246.227L319.019 246.367L319.044 250.367ZM339.551 249.16L363.176 293.949L366.714 292.083L343.089 247.293L339.551 249.16ZM362.945 293.016V294H366.945V293.016H362.945ZM364.945 292H342.375V296H364.945V292Z" fill="#153B50"/>
</g>
<defs>
<filter id="filter0_d_3_12" x="162.766" y="143.25" width="175.062" height="212.75" filterUnits="userSpaceOnUse" color-interpolation-filters="sRGB">
<feFlood flood-opacity="0" result="BackgroundImageFix"/>
<feColorMatrix in="SourceAlpha" type="matrix" values="0 0 0 0 0 0 0 0 0 0 0 0 0 0 0 0 0 0 127 0" result="hardAlpha"/>
<feOffset dy="4"/>
<feGaussianBlur stdDeviation="2"/>
<feComposite in2="hardAlpha" operator="out"/>
<feColorMatrix type="matrix" values="0 0 0 0 0 0 0 0 0 0 0 0 0 0 0 0 0 0 0.25 0"/>
<feBlend mode="normal" in2="BackgroundImageFix" result="effect1_dropShadow_3_12"/>
<feBlend mode="normal" in="SourceGraphic" in2="effect1_dropShadow_3_12" result="shape"/>
</filter>
<filter id="filter1_d_3_12" x="133.711" y="192" width="84.1484" height="110.375" filterUnits="userSpaceOnUse" color-interpolation-filters="sRGB">
<feFlood flood-opacity="0" result="BackgroundImageFix"/>
<feColorMatrix in="SourceAlpha" type="matrix" values="0 0 0 0 0 0 0 0 0 0 0 0 0 0 0 0 0 0 127 0" result="hardAlpha"/>
<feOffset dy="4"/>
<feGaussianBlur stdDeviation="2"/>
<feComposite in2="hardAlpha" operator="out"/>
<feColorMatrix type="matrix" values="0 0 0 0 0 0 0 0 0 0 0 0 0 0 0 0 0 0 0.25 0"/>
<feBlend mode="normal" in2="BackgroundImageFix" result="effect1_dropShadow_3_12"/>
<feBlend mode="normal" in="SourceGraphic" in2="effect1_dropShadow_3_12" result="shape"/>
</filter>
<filter id="filter2_d_3_12" x="281.141" y="191.625" width="87.8047" height="110.375" filterUnits="userSpaceOnUse" color-interpolation-filters="sRGB">
<feFlood flood-opacity="0" result="BackgroundImageFix"/>
<feColorMatrix in="SourceAlpha" type="matrix" values="0 0 0 0 0 0 0 0 0 0 0 0 0 0 0 0 0 0 127 0" result="hardAlpha"/>
<feOffset dy="4"/>
<feGaussianBlur stdDeviation="2"/>
<feComposite in2="hardAlpha" operator="out"/>
<feColorMatrix type="matrix" values="0 0 0 0 0 0 0 0 0 0 0 0 0 0 0 0 0 0 0.25 0"/>
<feBlend mode="normal" in2="BackgroundImageFix" result="effect1_dropShadow_3_12"/>
<feBlend mode="normal" in="SourceGraphic" in2="effect1_dropShadow_3_12" result="shape"/>
</filter>
</defs>
</svg>
